<?xml version="1.0" encoding="UTF-8"?>
<svg xmlns="http://www.w3.org/2000/svg" viewBox="0 0 1100 620" role="img" aria-label="CameraSubsystem system architecture">
  <style><![CDATA[
svg { background: #020617; font-family: 'JetBrains Mono', 'SFMono-Regular', Consolas, monospace; }
.label { fill: #94a3b8; font-size: 9px; text-anchor: middle; }
]]></style>
        <defs>
          <marker id="arrowhead" markerWidth="10" markerHeight="7" refX="9" refY="3.5" orient="auto">
            <polygon points="0 0, 10 3.5, 0 7" fill="#64748b" />
          </marker>
          <pattern id="grid" width="40" height="40" patternUnits="userSpaceOnUse">
            <path d="M 40 0 L 0 0 0 40" fill="none" stroke="#1e293b" stroke-width="0.5"/>
          </pattern>
        </defs>
        <rect width="100%" height="100%" fill="url(#grid)" />

        <line x1="320" y1="235" x2="395" y2="205" stroke="#34d399" stroke-width="1.5" marker-end="url(#arrowhead)"/>
        <line x1="320" y1="295" x2="395" y2="350" stroke="#34d399" stroke-width="1.5" marker-end="url(#arrowhead)"/>
        <line x1="535" y1="205" x2="630" y2="205" stroke="#34d399" stroke-width="1.5" marker-end="url(#arrowhead)"/>
        <line x1="705" y1="235" x2="705" y2="300" stroke="#34d399" stroke-width="1.5" marker-end="url(#arrowhead)"/>
        <line x1="705" y1="390" x2="705" y2="455" stroke="#34d399" stroke-width="1.5" marker-end="url(#arrowhead)"/>
        <line x1="320" y1="350" x2="395" y2="350" stroke="#34d399" stroke-width="1.5" marker-end="url(#arrowhead)"/>
        <line x1="535" y1="350" x2="630" y2="350" stroke="#34d399" stroke-width="1.5" marker-end="url(#arrowhead)"/>
        <line x1="780" y1="350" x2="845" y2="205" stroke="#22d3ee" stroke-width="1.5" marker-end="url(#arrowhead)"/>
        <line x1="780" y1="350" x2="845" y2="350" stroke="#22d3ee" stroke-width="1.5" marker-end="url(#arrowhead)"/>
        <line x1="780" y1="350" x2="845" y2="495" stroke="#22d3ee" stroke-width="1.5" marker-end="url(#arrowhead)"/>
        <line x1="920" y1="235" x2="920" y2="300" stroke="#22d3ee" stroke-width="1.5" marker-end="url(#arrowhead)"/>
        <text x="353" y="211" fill="#94a3b8" font-size="9" text-anchor="middle">Subscribe</text>
        <text x="815" y="333" fill="#94a3b8" font-size="9" text-anchor="middle">FramePayload</text>

        <rect x="40" y="120" width="300" height="420" rx="12" fill="rgba(6, 78, 59, 0.08)" stroke="#34d399" stroke-width="1" stroke-dasharray="8,4"/>
        <text x="56" y="142" fill="#34d399" font-size="10" font-weight="600">Core Publisher Process</text>
        <rect x="90" y="190" width="180" height="70" rx="6" fill="#0f172a"/>
        <rect x="90" y="190" width="180" height="70" rx="6" fill="rgba(6, 78, 59, 0.4)" stroke="#34d399" stroke-width="1.5"/>
        <text x="180" y="218" fill="white" font-size="12" font-weight="600" text-anchor="middle">CameraControlServer</text>
        <text x="180" y="238" fill="#94a3b8" font-size="9" text-anchor="middle">Subscribe / Ping</text>
        <rect x="90" y="315" width="180" height="70" rx="6" fill="#0f172a"/>
        <rect x="90" y="315" width="180" height="70" rx="6" fill="rgba(6, 78, 59, 0.4)" stroke="#34d399" stroke-width="1.5"/>
        <text x="180" y="343" fill="white" font-size="12" font-weight="600" text-anchor="middle">CameraSessionManager</text>
        <text x="180" y="363" fill="#94a3b8" font-size="9" text-anchor="middle">reference-count lifecycle</text>

        <rect x="395" y="160" width="140" height="90" rx="6" fill="#0f172a"/>
        <rect x="395" y="160" width="140" height="90" rx="6" fill="rgba(6, 78, 59, 0.4)" stroke="#34d399" stroke-width="1.5"/>
        <text x="465" y="190" fill="white" font-size="12" font-weight="600" text-anchor="middle">CameraSource</text>
        <text x="465" y="210" fill="#94a3b8" font-size="9" text-anchor="middle">V4L2/MMAP now</text>
        <text x="465" y="226" fill="#94a3b8" font-size="9" text-anchor="middle">backend pluggable</text>
        <rect x="395" y="315" width="140" height="70" rx="6" fill="#0f172a"/>
        <rect x="395" y="315" width="140" height="70" rx="6" fill="rgba(251, 146, 60, 0.3)" stroke="#fb923c" stroke-width="1.5"/>
        <text x="465" y="343" fill="white" font-size="12" font-weight="600" text-anchor="middle">Control IPC</text>
        <text x="465" y="363" fill="#94a3b8" font-size="9" text-anchor="middle">Unix Socket</text>

        <rect x="630" y="160" width="150" height="75" rx="6" fill="#0f172a"/>
        <rect x="630" y="160" width="150" height="75" rx="6" fill="rgba(6, 78, 59, 0.4)" stroke="#34d399" stroke-width="1.5"/>
        <text x="705" y="190" fill="white" font-size="12" font-weight="600" text-anchor="middle">BufferPool</text>
        <text x="705" y="210" fill="#94a3b8" font-size="9" text-anchor="middle">FrameHandle / lifecycle</text>
        <rect x="630" y="315" width="150" height="75" rx="6" fill="#0f172a"/>
        <rect x="630" y="315" width="150" height="75" rx="6" fill="rgba(251, 146, 60, 0.3)" stroke="#fb923c" stroke-width="1.5"/>
        <text x="705" y="345" fill="white" font-size="12" font-weight="600" text-anchor="middle">DataSocketServer</text>
        <text x="705" y="365" fill="#94a3b8" font-size="9" text-anchor="middle">FrameHeader + Payload</text>

        <rect x="845" y="160" width="190" height="75" rx="6" fill="#0f172a"/>
        <rect x="845" y="160" width="190" height="75" rx="6" fill="rgba(8, 51, 68, 0.4)" stroke="#22d3ee" stroke-width="1.5"/>
        <text x="940" y="190" fill="white" font-size="12" font-weight="600" text-anchor="middle">web_preview_gateway</text>
        <text x="940" y="210" fill="#94a3b8" font-size="9" text-anchor="middle">HTTP + WebSocket</text>
        <rect x="845" y="315" width="190" height="75" rx="6" fill="#0f172a"/>
        <rect x="845" y="315" width="190" height="75" rx="6" fill="rgba(30, 41, 59, 0.5)" stroke="#94a3b8" stroke-width="1.5"/>
        <text x="940" y="345" fill="white" font-size="12" font-weight="600" text-anchor="middle">Other Subscribers</text>
        <text x="940" y="365" fill="#94a3b8" font-size="9" text-anchor="middle">AI / encode / record</text>
        <rect x="845" y="460" width="190" height="75" rx="6" fill="#0f172a"/>
        <rect x="845" y="460" width="190" height="75" rx="6" fill="rgba(30, 41, 59, 0.5)" stroke="#94a3b8" stroke-width="1.5"/>
        <text x="940" y="490" fill="white" font-size="12" font-weight="600" text-anchor="middle">Sub-publisher</text>
        <text x="940" y="510" fill="#94a3b8" font-size="9" text-anchor="middle">optional downstream</text>
      </svg>
