<?xml version="1.0" encoding="UTF-8"?>
<svg xmlns="http://www.w3.org/2000/svg" viewBox="0 0 1100 360" role="img" aria-label="CameraSubsystem current data path">
  <style><![CDATA[
svg { background: #020617; font-family: 'JetBrains Mono', 'SFMono-Regular', Consolas, monospace; }
.label { fill: #94a3b8; font-size: 9px; text-anchor: middle; }
]]></style>
        <defs>
          <marker id="arrowhead2" markerWidth="10" markerHeight="7" refX="9" refY="3.5" orient="auto">
            <polygon points="0 0, 10 3.5, 0 7" fill="#64748b" />
          </marker>
          <pattern id="grid2" width="40" height="40" patternUnits="userSpaceOnUse">
            <path d="M 40 0 L 0 0 0 40" fill="none" stroke="#1e293b" stroke-width="0.5"/>
          </pattern>
        </defs>
        <rect width="100%" height="100%" fill="url(#grid2)" />
        <line x1="150" y1="180" x2="220" y2="180" stroke="#34d399" stroke-width="1.5" marker-end="url(#arrowhead2)"/>
        <line x1="350" y1="180" x2="420" y2="180" stroke="#34d399" stroke-width="1.5" marker-end="url(#arrowhead2)"/>
        <line x1="550" y1="180" x2="620" y2="180" stroke="#34d399" stroke-width="1.5" marker-end="url(#arrowhead2)"/>
        <line x1="750" y1="180" x2="820" y2="180" stroke="#22d3ee" stroke-width="1.5" marker-end="url(#arrowhead2)"/>
        <line x1="940" y1="180" x2="1010" y2="180" stroke="#22d3ee" stroke-width="1.5" marker-end="url(#arrowhead2)"/>
        <text x="385" y="166" fill="#94a3b8" font-size="9" text-anchor="middle">copy</text>
        <text x="785" y="166" fill="#94a3b8" font-size="9" text-anchor="middle">Unix Socket</text>

        <rect x="35" y="135" width="115" height="90" rx="6" fill="rgba(30, 41, 59, 0.5)" stroke="#94a3b8" stroke-width="1.5"/>
        <text x="92" y="166" fill="white" font-size="12" font-weight="600" text-anchor="middle">Camera</text>
        <text x="92" y="186" fill="#94a3b8" font-size="9" text-anchor="middle">USB / MIPI</text>
        <rect x="220" y="135" width="130" height="90" rx="6" fill="rgba(6, 78, 59, 0.4)" stroke="#34d399" stroke-width="1.5"/>
        <text x="285" y="166" fill="white" font-size="12" font-weight="600" text-anchor="middle">CameraSource</text>
        <text x="285" y="186" fill="#94a3b8" font-size="9" text-anchor="middle">backend frame</text>
        <rect x="420" y="135" width="130" height="90" rx="6" fill="rgba(6, 78, 59, 0.4)" stroke="#34d399" stroke-width="1.5"/>
        <text x="485" y="166" fill="white" font-size="12" font-weight="600" text-anchor="middle">BufferPool</text>
        <text x="485" y="186" fill="#94a3b8" font-size="9" text-anchor="middle">FrameHandle</text>
        <rect x="620" y="135" width="130" height="90" rx="6" fill="rgba(251, 146, 60, 0.3)" stroke="#fb923c" stroke-width="1.5"/>
        <text x="685" y="166" fill="white" font-size="12" font-weight="600" text-anchor="middle">Data IPC</text>
        <text x="685" y="186" fill="#94a3b8" font-size="9" text-anchor="middle">Header + Payload</text>
        <rect x="820" y="135" width="120" height="90" rx="6" fill="rgba(8, 51, 68, 0.4)" stroke="#22d3ee" stroke-width="1.5"/>
        <text x="880" y="166" fill="white" font-size="12" font-weight="600" text-anchor="middle">Gateway</text>
        <text x="880" y="186" fill="#94a3b8" font-size="9" text-anchor="middle">WebFrameHeader</text>
        <rect x="1010" y="135" width="70" height="90" rx="6" fill="rgba(8, 51, 68, 0.4)" stroke="#22d3ee" stroke-width="1.5"/>
        <text x="1045" y="166" fill="white" font-size="12" font-weight="600" text-anchor="middle">Browser</text>
        <text x="1045" y="186" fill="#94a3b8" font-size="9" text-anchor="middle">Canvas</text>
      </svg>
