<?xml version="1.0" encoding="UTF-8"?>
<svg xmlns="http://www.w3.org/2000/svg" viewBox="0 0 1000 620">
  <style><![CDATA[
svg { background: #020617; font-family: 'JetBrains Mono', 'SFMono-Regular', Consolas, monospace; }
.label { fill: #94a3b8; font-size: 9px; text-anchor: middle; }
]]></style>
        <defs>
          <marker id="arrowhead" markerWidth="10" markerHeight="7" refX="9" refY="3.5" orient="auto">
            <polygon points="0 0, 10 3.5, 0 7" fill="#64748b" />
          </marker>
          <pattern id="grid" width="40" height="40" patternUnits="userSpaceOnUse">
            <path d="M 40 0 L 0 0 0 40" fill="none" stroke="#1e293b" stroke-width="0.5"/>
          </pattern>
        </defs>

        <rect width="100%" height="100%" fill="url(#grid)" />

        <!-- ===== ROOT ===== -->
        <rect x="400" y="20" width="200" height="40" rx="6" fill="#0f172a"/>
        <rect x="400" y="20" width="200" height="40" rx="6" fill="rgba(30, 41, 59, 0.5)" stroke="#94a3b8" stroke-width="1.5"/>
        <text x="500" y="44" fill="white" font-size="12" font-weight="600" text-anchor="middle">CameraSubsystem/</text>

        <!-- ===== LEVEL 1 ARROWS ===== -->
        <line x1="440" y1="60" x2="120" y2="88" stroke="#64748b" stroke-width="1" marker-end="url(#arrowhead)"/>
        <line x1="470" y1="60" x2="310" y2="88" stroke="#64748b" stroke-width="1" marker-end="url(#arrowhead)"/>
        <line x1="500" y1="60" x2="500" y2="88" stroke="#64748b" stroke-width="1" marker-end="url(#arrowhead)"/>
        <line x1="530" y1="60" x2="690" y2="88" stroke="#64748b" stroke-width="1" marker-end="url(#arrowhead)"/>
        <line x1="560" y1="60" x2="880" y2="88" stroke="#64748b" stroke-width="1" marker-end="url(#arrowhead)"/>

        <!-- ===== LEVEL 1 NODES ===== -->
        <!-- include/ -->
        <rect x="40" y="90" width="160" height="40" rx="6" fill="#0f172a"/>
        <rect x="40" y="90" width="160" height="40" rx="6" fill="rgba(6, 78, 59, 0.4)" stroke="#34d399" stroke-width="1.5"/>
        <text x="120" y="114" fill="white" font-size="11" font-weight="600" text-anchor="middle">include/</text>

        <!-- src/ -->
        <rect x="230" y="90" width="160" height="40" rx="6" fill="#0f172a"/>
        <rect x="230" y="90" width="160" height="40" rx="6" fill="rgba(6, 78, 59, 0.4)" stroke="#34d399" stroke-width="1.5"/>
        <text x="310" y="114" fill="white" font-size="11" font-weight="600" text-anchor="middle">src/</text>

        <!-- examples/ -->
        <rect x="420" y="90" width="160" height="40" rx="6" fill="#0f172a"/>
        <rect x="420" y="90" width="160" height="40" rx="6" fill="rgba(6, 78, 59, 0.4)" stroke="#34d399" stroke-width="1.5"/>
        <text x="500" y="114" fill="white" font-size="11" font-weight="600" text-anchor="middle">examples/</text>

        <!-- extensions/ (highlighted) -->
        <rect x="610" y="90" width="160" height="40" rx="6" fill="#0f172a"/>
        <rect x="610" y="90" width="160" height="40" rx="6" fill="rgba(8, 51, 68, 0.4)" stroke="#22d3ee" stroke-width="1.5"/>
        <text x="690" y="114" fill="white" font-size="11" font-weight="600" text-anchor="middle">extensions/</text>

        <!-- tests/ + scripts/ + docs/ + cmake/ + third_party/ (compact row) -->
        <rect x="800" y="90" width="160" height="40" rx="6" fill="#0f172a"/>
        <rect x="800" y="90" width="160" height="40" rx="6" fill="rgba(30, 41, 59, 0.5)" stroke="#94a3b8" stroke-width="1.5"/>
        <text x="880" y="106" fill="white" font-size="9" font-weight="600" text-anchor="middle">tests/ scripts/</text>
        <text x="880" y="120" fill="white" font-size="9" font-weight="600" text-anchor="middle">docs/ cmake/ ...</text>

        <!-- ===== INCLUDE SUB-MODULES ===== -->
        <line x1="80" y1="130" x2="60" y2="158" stroke="#34d399" stroke-width="1"/>
        <line x1="100" y1="130" x2="120" y2="158" stroke="#34d399" stroke-width="1"/>
        <line x1="140" y1="130" x2="180" y2="158" stroke="#34d399" stroke-width="1"/>
        <line x1="160" y1="130" x2="240" y2="158" stroke="#34d399" stroke-width="1"/>

        <rect x="20" y="160" width="80" height="30" rx="4" fill="rgba(6, 78, 59, 0.3)" stroke="#34d399" stroke-width="1"/>
        <text x="60" y="179" fill="#94a3b8" font-size="9" text-anchor="middle">core/</text>

        <rect x="80" y="160" width="80" height="30" rx="4" fill="rgba(6, 78, 59, 0.3)" stroke="#34d399" stroke-width="1"/>
        <text x="120" y="179" fill="#94a3b8" font-size="9" text-anchor="middle">camera/</text>

        <rect x="140" y="160" width="80" height="30" rx="4" fill="rgba(6, 78, 59, 0.3)" stroke="#34d399" stroke-width="1"/>
        <text x="180" y="179" fill="#94a3b8" font-size="9" text-anchor="middle">broker/</text>

        <rect x="200" y="160" width="80" height="30" rx="4" fill="rgba(6, 78, 59, 0.3)" stroke="#34d399" stroke-width="1"/>
        <text x="240" y="179" fill="#94a3b8" font-size="9" text-anchor="middle">ipc/</text>

        <!-- ===== EXAMPLES SUB ===== -->
        <line x1="470" y1="130" x2="440" y2="158" stroke="#34d399" stroke-width="1"/>
        <line x1="530" y1="130" x2="560" y2="158" stroke="#34d399" stroke-width="1"/>

        <rect x="380" y="160" width="120" height="30" rx="4" fill="rgba(6, 78, 59, 0.3)" stroke="#34d399" stroke-width="1"/>
        <text x="440" y="179" fill="#94a3b8" font-size="8" text-anchor="middle">publisher_example</text>

        <rect x="500" y="160" width="120" height="30" rx="4" fill="rgba(6, 78, 59, 0.3)" stroke="#34d399" stroke-width="1"/>
        <text x="560" y="179" fill="#94a3b8" font-size="8" text-anchor="middle">subscriber_example</text>

        <!-- ===== EXTENSIONS BOUNDARY ===== -->
        <rect x="590" y="150" width="380" height="440" rx="12" fill="rgba(8, 51, 68, 0.06)" stroke="#22d3ee" stroke-width="1" stroke-dasharray="8,4"/>
        <text x="602" y="168" fill="#22d3ee" font-size="9" font-weight="600">extensions/</text>

        <!-- web_preview/ -->
        <rect x="610" y="180" width="340" height="40" rx="6" fill="#0f172a"/>
        <rect x="610" y="180" width="340" height="40" rx="6" fill="rgba(8, 51, 68, 0.4)" stroke="#22d3ee" stroke-width="1.5"/>
        <text x="780" y="204" fill="white" font-size="11" font-weight="600" text-anchor="middle">web_preview/</text>

        <!-- web_preview sub-items -->
        <line x1="680" y1="220" x2="660" y2="248" stroke="#22d3ee" stroke-width="1"/>
        <line x1="740" y1="220" x2="780" y2="248" stroke="#22d3ee" stroke-width="1"/>
        <line x1="820" y1="220" x2="900" y2="248" stroke="#22d3ee" stroke-width="1"/>

        <!-- gateway/ -->
        <rect x="610" y="250" width="120" height="50" rx="6" fill="#0f172a"/>
        <rect x="610" y="250" width="120" height="50" rx="6" fill="rgba(6, 78, 59, 0.4)" stroke="#34d399" stroke-width="1.5"/>
        <text x="670" y="270" fill="white" font-size="10" font-weight="600" text-anchor="middle">gateway/</text>
        <text x="670" y="286" fill="#94a3b8" font-size="8" text-anchor="middle">C++ WebSocket</text>

        <!-- web/ -->
        <rect x="740" y="250" width="120" height="50" rx="6" fill="#0f172a"/>
        <rect x="740" y="250" width="120" height="50" rx="6" fill="rgba(8, 51, 68, 0.4)" stroke="#22d3ee" stroke-width="1.5"/>
        <text x="800" y="270" fill="white" font-size="10" font-weight="600" text-anchor="middle">web/</text>
        <text x="800" y="286" fill="#94a3b8" font-size="8" text-anchor="middle">React 前端</text>

        <!-- scripts/ -->
        <rect x="870" y="250" width="90" height="50" rx="6" fill="#0f172a"/>
        <rect x="870" y="250" width="90" height="50" rx="6" fill="rgba(30, 41, 59, 0.5)" stroke="#94a3b8" stroke-width="1.5"/>
        <text x="915" y="270" fill="white" font-size="10" font-weight="600" text-anchor="middle">scripts/</text>
        <text x="915" y="286" fill="#94a3b8" font-size="8" text-anchor="middle">构建部署</text>

        <!-- gateway sub-modules -->
        <line x1="640" y1="300" x2="640" y2="328" stroke="#34d399" stroke-width="1"/>
        <line x1="700" y1="300" x2="740" y2="328" stroke="#34d399" stroke-width="1"/>

        <rect x="600" y="330" width="100" height="30" rx="4" fill="rgba(6, 78, 59, 0.3)" stroke="#34d399" stroke-width="1"/>
        <text x="650" y="349" fill="#94a3b8" font-size="8" text-anchor="middle">include/</text>

        <rect x="700" y="330" width="100" height="30" rx="4" fill="rgba(6, 78, 59, 0.3)" stroke="#34d399" stroke-width="1"/>
        <text x="750" y="349" fill="#94a3b8" font-size="8" text-anchor="middle">src/ (7 files)</text>

        <!-- web sub-modules -->
        <line x1="770" y1="300" x2="770" y2="388" stroke="#22d3ee" stroke-width="1"/>
        <line x1="830" y1="300" x2="860" y2="388" stroke="#22d3ee" stroke-width="1"/>
        <line x1="800" y1="300" x2="950" y2="388" stroke="#22d3ee" stroke-width="1"/>

        <rect x="730" y="390" width="80" height="30" rx="4" fill="rgba(8, 51, 68, 0.3)" stroke="#22d3ee" stroke-width="1"/>
        <text x="770" y="409" fill="#94a3b8" font-size="8" text-anchor="middle">src/</text>

        <rect x="820" y="390" width="80" height="30" rx="4" fill="rgba(8, 51, 68, 0.3)" stroke="#22d3ee" stroke-width="1"/>
        <text x="860" y="409" fill="#94a3b8" font-size="8" text-anchor="middle">dist/</text>

        <rect x="910" y="390" width="60" height="30" rx="4" fill="rgba(8, 51, 68, 0.3)" stroke="#22d3ee" stroke-width="1"/>
        <text x="940" y="409" fill="#94a3b8" font-size="8" text-anchor="middle">config</text>

        <!-- web/src sub-modules -->
        <line x1="740" y1="420" x2="700" y2="448" stroke="#22d3ee" stroke-width="1"/>
        <line x1="760" y1="420" x2="780" y2="448" stroke="#22d3ee" stroke-width="1"/>
        <line x1="780" y1="420" x2="860" y2="448" stroke="#22d3ee" stroke-width="1"/>
        <line x1="800" y1="420" x2="940" y2="448" stroke="#22d3ee" stroke-width="1"/>

        <rect x="660" y="450" width="80" height="30" rx="4" fill="rgba(8, 51, 68, 0.3)" stroke="#22d3ee" stroke-width="1"/>
        <text x="700" y="469" fill="#94a3b8" font-size="8" text-anchor="middle">components/</text>

        <rect x="740" y="450" width="80" height="30" rx="4" fill="rgba(8, 51, 68, 0.3)" stroke="#22d3ee" stroke-width="1"/>
        <text x="780" y="469" fill="#94a3b8" font-size="8" text-anchor="middle">hooks/</text>

        <rect x="820" y="450" width="80" height="30" rx="4" fill="rgba(8, 51, 68, 0.3)" stroke="#22d3ee" stroke-width="1"/>
        <text x="860" y="469" fill="#94a3b8" font-size="8" text-anchor="middle">stores/</text>

        <rect x="900" y="450" width="80" height="30" rx="4" fill="rgba(8, 51, 68, 0.3)" stroke="#22d3ee" stroke-width="1"/>
        <text x="940" y="469" fill="#94a3b8" font-size="8" text-anchor="middle">types/</text>

        <!-- ===== LEGEND ===== -->
        <text x="40" y="560" fill="white" font-size="10" font-weight="600">图例</text>

        <rect x="40" y="575" width="16" height="10" rx="2" fill="rgba(6, 78, 59, 0.4)" stroke="#34d399" stroke-width="1"/>
        <text x="62" y="583" fill="#94a3b8" font-size="8">C++ 核心库 / 后端</text>

        <rect x="180" y="575" width="16" height="10" rx="2" fill="rgba(8, 51, 68, 0.4)" stroke="#22d3ee" stroke-width="1"/>
        <text x="202" y="583" fill="#94a3b8" font-size="8">前端 / extensions</text>

        <rect x="320" y="575" width="16" height="10" rx="2" fill="rgba(30, 41, 59, 0.5)" stroke="#94a3b8" stroke-width="1"/>
        <text x="342" y="583" fill="#94a3b8" font-size="8">通用 / 工具</text>
      </svg>
